# xmcd
#
# Track frame offsets:
#	150
#	12612
#	26609
#	40950
#	56896
#	71332
#	85724
#	100304
#	114279
#	127847
#	141510
#	153779
#	167132
#	180052
#	193955
#	207926
#	221391
#	234299
#	247963
#	259733
#
# Disc length: 3646 seconds
#
# Revision: 0
# Processed by: cddbd v1.5.1PL0 Copyright (c) Steve Scherf et al.
# Submitted via: dBpowerAMP V4.0
#
DISCID=0c0e3c14
DTITLE=Leroy Carr - Prison Bound Blues
DYEAR=2004
DGENRE=Blues
TTITLE0=Naptown Blues
TTITLE1=Prison Bound Blues
TTITLE2=Box Car Blues
TTITLE3=Blues Before Sunrise
TTITLE4=Christmas In Jail
TTITLE5=Pap's Got Your Water On
TTITLE6=Baby Don't You Love Me No More
TTITLE7=Low Down Dirty Blues
TTITLE8=How Long How Long Blues
TTITLE9=Tennessee Blues
TTITLE10=Papa Wants A Cookie
TTITLE11=When The Sun Goes Down
TTITLE12=You Got To Reap What You Sow
TTITLE13=Midnight Hour Blues
TTITLE14=Rocks In My Bed
TTITLE15=Sloppy Drunk Blues
TTITLE16=Prison Cell Blues
TTITLE17=Four Day Rider
TTITLE18=Hustler's Blues
TTITLE19=Six Cold Feet In The Ground
EXTD=
EXTT0=
EXTT1=
EXTT2=
EXTT3=
EXTT4=
EXTT5=
EXTT6=
EXTT7=
EXTT8=
EXTT9=
EXTT10=
EXTT11=
EXTT12=
EXTT13=
EXTT14=
EXTT15=
EXTT16=
EXTT17=
EXTT18=
EXTT19=
PLAYORDER=
